<svg width="115" height="18" viewBox="0 0 115 18" fill="none" xmlns="http://www.w3.org/2000/svg">
<path d="M7.754 17L0.978 1.6H3.354L9.58 15.812H8.216L14.486 1.6H16.686L9.932 17H7.754ZM23.093 17.132C21.8463 17.132 20.7463 16.8753 19.793 16.362C18.8543 15.8487 18.121 15.1447 17.593 14.25C17.0797 13.3553 16.823 12.3287 16.823 11.17C16.823 10.0113 17.0723 8.98467 17.571 8.09C18.0843 7.19533 18.781 6.49867 19.661 6C20.5557 5.48667 21.5603 5.23 22.675 5.23C23.8043 5.23 24.8017 5.47933 25.667 5.978C26.5323 6.47667 27.207 7.18067 27.691 8.09C28.1897 8.98467 28.439 10.0333 28.439 11.236C28.439 11.324 28.4317 11.4267 28.417 11.544C28.417 11.6613 28.4097 11.7713 28.395 11.874H18.473V10.356H27.295L26.437 10.884C26.4517 10.136 26.2977 9.46867 25.975 8.882C25.6523 8.29533 25.205 7.84067 24.633 7.518C24.0757 7.18067 23.423 7.012 22.675 7.012C21.9417 7.012 21.289 7.18067 20.717 7.518C20.145 7.84067 19.6977 8.30267 19.375 8.904C19.0523 9.49067 18.891 10.1653 18.891 10.928V11.28C18.891 12.0573 19.067 12.754 19.419 13.37C19.7857 13.9713 20.2917 14.4407 20.937 14.778C21.5823 15.1153 22.323 15.284 23.159 15.284C23.8483 15.284 24.4717 15.1667 25.029 14.932C25.601 14.6973 26.0997 14.3453 26.525 13.876L27.691 15.24C27.163 15.856 26.503 16.3253 25.711 16.648C24.9337 16.9707 24.061 17.132 23.093 17.132ZM29.7954 17L34.8114 10.488L34.7894 11.566L30.0154 5.34H32.3694L36.0214 10.136H35.1194L38.7714 5.34H41.0814L36.2414 11.61L36.2634 10.488L41.3234 17H38.9254L35.0754 11.896L35.9334 12.028L32.1494 17H29.7954Z" fill="#7F55FA"/>
<path d="M51.3281 17.176C50.1548 17.176 49.0621 16.978 48.0501 16.582C47.0528 16.186 46.1874 15.636 45.4541 14.932C44.7208 14.2133 44.1488 13.3773 43.7381 12.424C43.3274 11.4707 43.1221 10.4293 43.1221 9.3C43.1221 8.17067 43.3274 7.12933 43.7381 6.176C44.1488 5.22267 44.7208 4.394 45.4541 3.69C46.1874 2.97133 47.0528 2.414 48.0501 2.018C49.0474 1.622 50.1401 1.424 51.3281 1.424C52.5014 1.424 53.5794 1.622 54.5621 2.018C55.5594 2.39933 56.4248 2.94933 57.1581 3.668C57.9061 4.372 58.4781 5.20067 58.8741 6.154C59.2848 7.10733 59.4901 8.156 59.4901 9.3C59.4901 10.444 59.2848 11.4927 58.8741 12.446C58.4781 13.3993 57.9061 14.2353 57.1581 14.954C56.4248 15.658 55.5594 16.208 54.5621 16.604C53.5794 16.9853 52.5014 17.176 51.3281 17.176ZM51.3281 15.218C52.1788 15.218 52.9634 15.0713 53.6821 14.778C54.4154 14.4847 55.0461 14.074 55.5741 13.546C56.1168 13.0033 56.5348 12.3727 56.8281 11.654C57.1361 10.9353 57.2901 10.1507 57.2901 9.3C57.2901 8.44933 57.1361 7.66467 56.8281 6.946C56.5348 6.22733 56.1168 5.604 55.5741 5.076C55.0461 4.53333 54.4154 4.11533 53.6821 3.822C52.9634 3.52867 52.1788 3.382 51.3281 3.382C50.4628 3.382 49.6634 3.52867 48.9301 3.822C48.2114 4.11533 47.5808 4.53333 47.0381 5.076C46.4954 5.604 46.0701 6.22733 45.7621 6.946C45.4688 7.66467 45.3221 8.44933 45.3221 9.3C45.3221 10.1507 45.4688 10.9353 45.7621 11.654C46.0701 12.3727 46.4954 13.0033 47.0381 13.546C47.5808 14.074 48.2114 14.4847 48.9301 14.778C49.6634 15.0713 50.4628 15.218 51.3281 15.218ZM67.8907 17.132C66.8933 17.132 66.0133 16.9487 65.2507 16.582C64.5027 16.2153 63.916 15.658 63.4907 14.91C63.08 14.1473 62.8747 13.194 62.8747 12.05V5.34H64.9867V11.808C64.9867 12.952 65.258 13.81 65.8007 14.382C66.358 14.954 67.1353 15.24 68.1327 15.24C68.866 15.24 69.504 15.0933 70.0467 14.8C70.5893 14.492 71.0073 14.052 71.3007 13.48C71.594 12.8933 71.7407 12.1893 71.7407 11.368V5.34H73.8527V17H71.8507V13.854L72.1807 14.69C71.7993 15.4673 71.2273 16.0687 70.4647 16.494C69.702 16.9193 68.844 17.132 67.8907 17.132ZM82.3173 17.132C81.144 17.132 80.2347 16.8167 79.5893 16.186C78.944 15.5553 78.6213 14.6533 78.6213 13.48V2.788H80.7333V13.392C80.7333 14.0227 80.8873 14.5067 81.1953 14.844C81.518 15.1813 81.9727 15.35 82.5593 15.35C83.2193 15.35 83.7693 15.1667 84.2093 14.8L84.8693 16.318C84.5467 16.5967 84.158 16.802 83.7033 16.934C83.2633 17.066 82.8013 17.132 82.3173 17.132ZM76.6413 7.078V5.34H84.0773V7.078H76.6413ZM87.8627 17V0.675999H89.9747V17H87.8627ZM99.6392 17.132C98.3926 17.132 97.2926 16.8753 96.3392 16.362C95.4006 15.8487 94.6672 15.1447 94.1392 14.25C93.6259 13.3553 93.3692 12.3287 93.3692 11.17C93.3692 10.0113 93.6186 8.98467 94.1172 8.09C94.6306 7.19533 95.3272 6.49867 96.2072 6C97.1019 5.48667 98.1066 5.23 99.2212 5.23C100.351 5.23 101.348 5.47933 102.213 5.978C103.079 6.47667 103.753 7.18067 104.237 8.09C104.736 8.98467 104.985 10.0333 104.985 11.236C104.985 11.324 104.978 11.4267 104.963 11.544C104.963 11.6613 104.956 11.7713 104.941 11.874H95.0192V10.356H103.841L102.983 10.884C102.998 10.136 102.844 9.46867 102.521 8.882C102.199 8.29533 101.751 7.84067 101.179 7.518C100.622 7.18067 99.9692 7.012 99.2212 7.012C98.4879 7.012 97.8352 7.18067 97.2632 7.518C96.6912 7.84067 96.2439 8.30267 95.9212 8.904C95.5986 9.49067 95.4372 10.1653 95.4372 10.928V11.28C95.4372 12.0573 95.6132 12.754 95.9652 13.37C96.3319 13.9713 96.8379 14.4407 97.4832 14.778C98.1286 15.1153 98.8692 15.284 99.7052 15.284C100.395 15.284 101.018 15.1667 101.575 14.932C102.147 14.6973 102.646 14.3453 103.071 13.876L104.237 15.24C103.709 15.856 103.049 16.3253 102.257 16.648C101.48 16.9707 100.607 17.132 99.6392 17.132ZM112.362 17.132C111.189 17.132 110.279 16.8167 109.634 16.186C108.989 15.5553 108.666 14.6533 108.666 13.48V2.788H110.778V13.392C110.778 14.0227 110.932 14.5067 111.24 14.844C111.563 15.1813 112.017 15.35 112.604 15.35C113.264 15.35 113.814 15.1667 114.254 14.8L114.914 16.318C114.591 16.5967 114.203 16.802 113.748 16.934C113.308 17.066 112.846 17.132 112.362 17.132ZM106.686 7.078V5.34H114.122V7.078H106.686Z" fill="white"/>
</svg>
