<svg width="53" height="9" viewBox="0 0 53 9" fill="none" xmlns="http://www.w3.org/2000/svg">
<path d="M4.07 8L0.99 1H2.07L4.9 7.46H4.28L7.13 1H8.13L5.06 8H4.07ZM11.0423 8.06C10.4756 8.06 9.9756 7.94333 9.54227 7.71C9.1156 7.47667 8.78227 7.15667 8.54227 6.75C8.30893 6.34333 8.19227 5.87667 8.19227 5.35C8.19227 4.82333 8.3056 4.35667 8.53227 3.95C8.7656 3.54333 9.08227 3.22667 9.48227 3C9.88893 2.76667 10.3456 2.65 10.8523 2.65C11.3656 2.65 11.8189 2.76333 12.2123 2.99C12.6056 3.21667 12.9123 3.53667 13.1323 3.95C13.3589 4.35667 13.4723 4.83333 13.4723 5.38C13.4723 5.42 13.4689 5.46667 13.4623 5.52C13.4623 5.57333 13.4589 5.62333 13.4523 5.67H8.94227V4.98H12.9523L12.5623 5.22C12.5689 4.88 12.4989 4.57667 12.3523 4.31C12.2056 4.04333 12.0023 3.83667 11.7423 3.69C11.4889 3.53667 11.1923 3.46 10.8523 3.46C10.5189 3.46 10.2223 3.53667 9.96227 3.69C9.70227 3.83667 9.49893 4.04667 9.35227 4.32C9.2056 4.58667 9.13227 4.89333 9.13227 5.24V5.4C9.13227 5.75333 9.21227 6.07 9.37227 6.35C9.53893 6.62333 9.76893 6.83667 10.0623 6.99C10.3556 7.14333 10.6923 7.22 11.0723 7.22C11.3856 7.22 11.6689 7.16667 11.9223 7.06C12.1823 6.95333 12.4089 6.79333 12.6023 6.58L13.1323 7.2C12.8923 7.48 12.5923 7.69333 12.2323 7.84C11.8789 7.98667 11.4823 8.06 11.0423 8.06ZM14.0888 8L16.3688 5.04L16.3588 5.53L14.1888 2.7H15.2588L16.9188 4.88H16.5088L18.1688 2.7H19.2188L17.0188 5.55L17.0288 5.04L19.3288 8H18.2388L16.4888 5.68L16.8788 5.74L15.1588 8H14.0888Z" fill="#7F55FA"/>
<path d="M23.8764 8.08C23.3431 8.08 22.8464 7.99 22.3864 7.81C21.9331 7.63 21.5397 7.38 21.2064 7.06C20.8731 6.73333 20.6131 6.35333 20.4264 5.92C20.2397 5.48667 20.1464 5.01333 20.1464 4.5C20.1464 3.98667 20.2397 3.51333 20.4264 3.08C20.6131 2.64667 20.8731 2.27 21.2064 1.95C21.5397 1.62333 21.9331 1.37 22.3864 1.19C22.8397 1.01 23.3364 0.92 23.8764 0.92C24.4097 0.92 24.8997 1.01 25.3464 1.19C25.7997 1.36333 26.1931 1.61333 26.5264 1.94C26.8664 2.26 27.1264 2.63667 27.3064 3.07C27.4931 3.50333 27.5864 3.98 27.5864 4.5C27.5864 5.02 27.4931 5.49667 27.3064 5.93C27.1264 6.36333 26.8664 6.74333 26.5264 7.07C26.1931 7.39 25.7997 7.64 25.3464 7.82C24.8997 7.99333 24.4097 8.08 23.8764 8.08ZM23.8764 7.19C24.2631 7.19 24.6197 7.12333 24.9464 6.99C25.2797 6.85667 25.5664 6.67 25.8064 6.43C26.0531 6.18333 26.2431 5.89667 26.3764 5.57C26.5164 5.24333 26.5864 4.88667 26.5864 4.5C26.5864 4.11333 26.5164 3.75667 26.3764 3.43C26.2431 3.10333 26.0531 2.82 25.8064 2.58C25.5664 2.33333 25.2797 2.14333 24.9464 2.01C24.6197 1.87667 24.2631 1.81 23.8764 1.81C23.4831 1.81 23.1197 1.87667 22.7864 2.01C22.4597 2.14333 22.1731 2.33333 21.9264 2.58C21.6797 2.82 21.4864 3.10333 21.3464 3.43C21.2131 3.75667 21.1464 4.11333 21.1464 4.5C21.1464 4.88667 21.2131 5.24333 21.3464 5.57C21.4864 5.89667 21.6797 6.18333 21.9264 6.43C22.1731 6.67 22.4597 6.85667 22.7864 6.99C23.1197 7.12333 23.4831 7.19 23.8764 7.19ZM31.4048 8.06C30.9515 8.06 30.5515 7.97667 30.2048 7.81C29.8648 7.64333 29.5982 7.39 29.4048 7.05C29.2182 6.70333 29.1248 6.27 29.1248 5.75V2.7H30.0848V5.64C30.0848 6.16 30.2082 6.55 30.4548 6.81C30.7082 7.07 31.0615 7.2 31.5148 7.2C31.8482 7.2 32.1382 7.13333 32.3848 7C32.6315 6.86 32.8215 6.66 32.9548 6.4C33.0882 6.13333 33.1548 5.81333 33.1548 5.44V2.7H34.1148V8H33.2048V6.57L33.3548 6.95C33.1815 7.30333 32.9215 7.57667 32.5748 7.77C32.2282 7.96333 31.8382 8.06 31.4048 8.06ZM37.9624 8.06C37.4291 8.06 37.0158 7.91667 36.7224 7.63C36.4291 7.34333 36.2824 6.93333 36.2824 6.4V1.54H37.2424V6.36C37.2424 6.64667 37.3124 6.86667 37.4524 7.02C37.5991 7.17333 37.8058 7.25 38.0724 7.25C38.3724 7.25 38.6224 7.16667 38.8224 7L39.1224 7.69C38.9758 7.81667 38.7991 7.91 38.5924 7.97C38.3924 8.03 38.1824 8.06 37.9624 8.06ZM35.3824 3.49V2.7H38.7624V3.49H35.3824ZM40.483 8V0.58H41.443V8H40.483ZM45.836 8.06C45.2694 8.06 44.7694 7.94333 44.336 7.71C43.9094 7.47667 43.576 7.15667 43.336 6.75C43.1027 6.34333 42.986 5.87667 42.986 5.35C42.986 4.82333 43.0994 4.35667 43.326 3.95C43.5594 3.54333 43.876 3.22667 44.276 3C44.6827 2.76667 45.1394 2.65 45.646 2.65C46.1594 2.65 46.6127 2.76333 47.006 2.99C47.3994 3.21667 47.706 3.53667 47.926 3.95C48.1527 4.35667 48.266 4.83333 48.266 5.38C48.266 5.42 48.2627 5.46667 48.256 5.52C48.256 5.57333 48.2527 5.62333 48.246 5.67H43.736V4.98H47.746L47.356 5.22C47.3627 4.88 47.2927 4.57667 47.146 4.31C46.9994 4.04333 46.796 3.83667 46.536 3.69C46.2827 3.53667 45.986 3.46 45.646 3.46C45.3127 3.46 45.016 3.53667 44.756 3.69C44.496 3.83667 44.2927 4.04667 44.146 4.32C43.9994 4.58667 43.926 4.89333 43.926 5.24V5.4C43.926 5.75333 44.006 6.07 44.166 6.35C44.3327 6.62333 44.5627 6.83667 44.856 6.99C45.1494 7.14333 45.486 7.22 45.866 7.22C46.1794 7.22 46.4627 7.16667 46.716 7.06C46.976 6.95333 47.2027 6.79333 47.396 6.58L47.926 7.2C47.686 7.48 47.386 7.69333 47.026 7.84C46.6727 7.98667 46.276 8.06 45.836 8.06ZM51.6191 8.06C51.0857 8.06 50.6724 7.91667 50.3791 7.63C50.0857 7.34333 49.9391 6.93333 49.9391 6.4V1.54H50.8991V6.36C50.8991 6.64667 50.9691 6.86667 51.1091 7.02C51.2557 7.17333 51.4624 7.25 51.7291 7.25C52.0291 7.25 52.2791 7.16667 52.4791 7L52.7791 7.69C52.6324 7.81667 52.4557 7.91 52.2491 7.97C52.0491 8.03 51.8391 8.06 51.6191 8.06ZM49.0391 3.49V2.7H52.4191V3.49H49.0391Z" fill="white"/>
</svg>
