<svg width="89" height="33" viewBox="0 0 89 33" fill="none" xmlns="http://www.w3.org/2000/svg">
<path d="M12.408 4.8L7.496 16H5.912L0.984 4.8H2.712L6.744 14L10.808 4.8H12.408ZM20.9556 11.808C20.9556 11.9253 20.945 12.08 20.9236 12.272H14.0436C14.1396 13.0187 14.465 13.6213 15.0196 14.08C15.585 14.528 16.2836 14.752 17.1156 14.752C18.129 14.752 18.945 14.4107 19.5636 13.728L20.4116 14.72C20.0276 15.168 19.5476 15.5093 18.9716 15.744C18.4063 15.9787 17.7716 16.096 17.0676 16.096C16.1716 16.096 15.377 15.9147 14.6836 15.552C13.9903 15.1787 13.4516 14.6613 13.0676 14C12.6943 13.3387 12.5076 12.592 12.5076 11.76C12.5076 10.9387 12.689 10.1973 13.0516 9.536C13.425 8.87467 13.9316 8.36267 14.5716 8C15.2223 7.62667 15.953 7.44 16.7636 7.44C17.5743 7.44 18.2943 7.62667 18.9236 8C19.5636 8.36267 20.0596 8.87467 20.4116 9.536C20.7743 10.1973 20.9556 10.9547 20.9556 11.808ZM16.7636 8.736C16.0276 8.736 15.409 8.96 14.9076 9.408C14.417 9.856 14.129 10.4427 14.0436 11.168H19.4836C19.3983 10.4533 19.105 9.872 18.6036 9.424C18.113 8.96533 17.4996 8.736 16.7636 8.736ZM28.5821 16L26.1341 12.752L23.6541 16H21.9421L25.2861 11.664L22.1021 7.52H23.8141L26.1501 10.576L28.4701 7.52H30.1501L26.9501 11.664L30.3261 16H28.5821Z" fill="#7F55FA"/>
<path d="M37.6022 16.128C36.4716 16.128 35.4529 15.8827 34.5462 15.392C33.6396 14.8907 32.9249 14.2027 32.4022 13.328C31.8902 12.4533 31.6342 11.4773 31.6342 10.4C31.6342 9.32267 31.8902 8.34667 32.4022 7.472C32.9249 6.59733 33.6396 5.91467 34.5462 5.424C35.4529 4.92267 36.4716 4.672 37.6022 4.672C38.7222 4.672 39.7356 4.92267 40.6422 5.424C41.5489 5.91467 42.2582 6.59733 42.7702 7.472C43.2822 8.336 43.5382 9.312 43.5382 10.4C43.5382 11.488 43.2822 12.4693 42.7702 13.344C42.2582 14.208 41.5489 14.8907 40.6422 15.392C39.7356 15.8827 38.7222 16.128 37.6022 16.128ZM37.6022 14.704C38.4236 14.704 39.1596 14.5173 39.8102 14.144C40.4716 13.7707 40.9889 13.2587 41.3622 12.608C41.7462 11.9467 41.9382 11.2107 41.9382 10.4C41.9382 9.58933 41.7462 8.85867 41.3622 8.208C40.9889 7.54667 40.4716 7.02933 39.8102 6.656C39.1596 6.28267 38.4236 6.096 37.6022 6.096C36.7809 6.096 36.0342 6.28267 35.3622 6.656C34.7009 7.02933 34.1782 7.54667 33.7942 8.208C33.4209 8.85867 33.2342 9.58933 33.2342 10.4C33.2342 11.2107 33.4209 11.9467 33.7942 12.608C34.1782 13.2587 34.7009 13.7707 35.3622 14.144C36.0342 14.5173 36.7809 14.704 37.6022 14.704ZM53.9837 7.52V16H52.5277V14.72C52.2184 15.1573 51.8077 15.4987 51.2957 15.744C50.7944 15.9787 50.2451 16.096 49.6477 16.096C48.5171 16.096 47.6264 15.7867 46.9757 15.168C46.3251 14.5387 45.9997 13.616 45.9997 12.4V7.52H47.5357V12.224C47.5357 13.0453 47.7331 13.6693 48.1277 14.096C48.5224 14.512 49.0877 14.72 49.8237 14.72C50.6344 14.72 51.2744 14.4747 51.7437 13.984C52.2131 13.4933 52.4477 12.8 52.4477 11.904V7.52H53.9837ZM61.9959 15.504C61.7719 15.696 61.4945 15.8453 61.1639 15.952C60.8332 16.048 60.4919 16.096 60.1399 16.096C59.2865 16.096 58.6252 15.8667 58.1559 15.408C57.6865 14.9493 57.4519 14.2933 57.4519 13.44V8.784H56.0119V7.52H57.4519V5.664H58.9879V7.52H61.4199V8.784H58.9879V13.376C58.9879 13.8347 59.0999 14.1867 59.3239 14.432C59.5585 14.6773 59.8892 14.8 60.3159 14.8C60.7852 14.8 61.1852 14.6667 61.5159 14.4L61.9959 15.504ZM64.1729 4.128H65.7089V16H64.1729V4.128ZM76.6256 11.808C76.6256 11.9253 76.615 12.08 76.5936 12.272H69.7136C69.8096 13.0187 70.135 13.6213 70.6896 14.08C71.255 14.528 71.9536 14.752 72.7856 14.752C73.799 14.752 74.615 14.4107 75.2336 13.728L76.0816 14.72C75.6976 15.168 75.2176 15.5093 74.6416 15.744C74.0763 15.9787 73.4416 16.096 72.7376 16.096C71.8416 16.096 71.047 15.9147 70.3536 15.552C69.6603 15.1787 69.1216 14.6613 68.7376 14C68.3643 13.3387 68.1776 12.592 68.1776 11.76C68.1776 10.9387 68.359 10.1973 68.7216 9.536C69.095 8.87467 69.6016 8.36267 70.2416 8C70.8923 7.62667 71.623 7.44 72.4336 7.44C73.2443 7.44 73.9643 7.62667 74.5936 8C75.2336 8.36267 75.7296 8.87467 76.0816 9.536C76.4443 10.1973 76.6256 10.9547 76.6256 11.808ZM72.4336 8.736C71.6976 8.736 71.079 8.96 70.5776 9.408C70.087 9.856 69.799 10.4427 69.7136 11.168H75.1536C75.0683 10.4533 74.775 9.872 74.2736 9.424C73.783 8.96533 73.1696 8.736 72.4336 8.736ZM83.8465 15.504C83.6225 15.696 83.3452 15.8453 83.0145 15.952C82.6838 16.048 82.3425 16.096 81.9905 16.096C81.1372 16.096 80.4758 15.8667 80.0065 15.408C79.5372 14.9493 79.3025 14.2933 79.3025 13.44V8.784H77.8625V7.52H79.3025V5.664H80.8385V7.52H83.2705V8.784H80.8385V13.376C80.8385 13.8347 80.9505 14.1867 81.1745 14.432C81.4092 14.6773 81.7398 14.8 82.1665 14.8C82.6358 14.8 83.0358 14.6667 83.3665 14.4L83.8465 15.504Z" fill="white"/>
<path d="M38.32 31.304V32H34.296V31.456L36.576 29.256C36.8533 28.9893 37.04 28.76 37.136 28.568C37.232 28.3707 37.28 28.1733 37.28 27.976C37.28 27.6827 37.176 27.456 36.968 27.296C36.7653 27.1307 36.472 27.048 36.088 27.048C35.4693 27.048 34.992 27.2507 34.656 27.656L34.112 27.184C34.3307 26.9173 34.616 26.7093 34.968 26.56C35.3253 26.4107 35.7227 26.336 36.16 26.336C36.7467 26.336 37.2133 26.4773 37.56 26.76C37.9067 27.0373 38.08 27.416 38.08 27.896C38.08 28.1947 38.016 28.4773 37.888 28.744C37.76 29.0107 37.5173 29.3147 37.16 29.656L35.448 31.304H38.32ZM41.4023 32.064C40.9596 32.064 40.565 31.952 40.2183 31.728C39.877 31.4987 39.6076 31.168 39.4103 30.736C39.213 30.304 39.1143 29.792 39.1143 29.2C39.1143 28.608 39.213 28.096 39.4103 27.664C39.6076 27.232 39.877 26.904 40.2183 26.68C40.565 26.4507 40.9596 26.336 41.4023 26.336C41.8396 26.336 42.229 26.4507 42.5703 26.68C42.917 26.904 43.189 27.232 43.3863 27.664C43.5836 28.096 43.6823 28.608 43.6823 29.2C43.6823 29.792 43.5836 30.304 43.3863 30.736C43.189 31.168 42.917 31.4987 42.5703 31.728C42.229 31.952 41.8396 32.064 41.4023 32.064ZM41.4023 31.352C41.8503 31.352 42.2076 31.168 42.4743 30.8C42.7463 30.432 42.8823 29.8987 42.8823 29.2C42.8823 28.5013 42.7463 27.968 42.4743 27.6C42.2076 27.232 41.8503 27.048 41.4023 27.048C40.949 27.048 40.5863 27.232 40.3143 27.6C40.0476 27.968 39.9143 28.5013 39.9143 29.2C39.9143 29.8987 40.0476 30.432 40.3143 30.8C40.5863 31.168 40.949 31.352 41.4023 31.352ZM48.5228 31.304V32H44.4988V31.456L46.7788 29.256C47.0561 28.9893 47.2428 28.76 47.3388 28.568C47.4348 28.3707 47.4828 28.1733 47.4828 27.976C47.4828 27.6827 47.3788 27.456 47.1708 27.296C46.9681 27.1307 46.6748 27.048 46.2908 27.048C45.6721 27.048 45.1948 27.2507 44.8588 27.656L44.3148 27.184C44.5335 26.9173 44.8188 26.7093 45.1708 26.56C45.5281 26.4107 45.9255 26.336 46.3628 26.336C46.9495 26.336 47.4161 26.4773 47.7628 26.76C48.1095 27.0373 48.2828 27.416 48.2828 27.896C48.2828 28.1947 48.2188 28.4773 48.0908 28.744C47.9628 29.0107 47.7201 29.3147 47.3628 29.656L45.6508 31.304H48.5228ZM53.2766 31.304V32H49.2526V31.456L51.5326 29.256C51.8099 28.9893 51.9966 28.76 52.0926 28.568C52.1886 28.3707 52.2366 28.1733 52.2366 27.976C52.2366 27.6827 52.1326 27.456 51.9246 27.296C51.7219 27.1307 51.4286 27.048 51.0446 27.048C50.4259 27.048 49.9486 27.2507 49.6126 27.656L49.0686 27.184C49.2872 26.9173 49.5726 26.7093 49.9246 26.56C50.2819 26.4107 50.6792 26.336 51.1166 26.336C51.7032 26.336 52.1699 26.4773 52.5166 26.76C52.8632 27.0373 53.0366 27.416 53.0366 27.896C53.0366 28.1947 52.9726 28.4773 52.8446 28.744C52.7166 29.0107 52.4739 29.3147 52.1166 29.656L50.4046 31.304H53.2766Z" fill="black" fill-opacity="0.42"/>
</svg>
